<?xml version="1.0" standalone="no"?>
<!DOCTYPE svg PUBLIC "-//W3C//DTD SVG 20010904//EN"
 "http://www.w3.org/TR/2001/REC-SVG-20010904/DTD/svg10.dtd">
<svg version="1.0" xmlns="http://www.w3.org/2000/svg"
 width="300.000000pt" height="71.000000pt" viewBox="0 0 300.000000 71.000000"
 preserveAspectRatio="xMidYMid meet">

<g transform="translate(0.000000,71.000000) scale(0.100000,-0.100000)"
fill="#000000" stroke="none">
<path d="M2 608 l3 -102 85 -13 c136 -21 135 -23 29 105 -51 61 -99 112 -107
112 -10 0 -12 -23 -10 -102z"/>
<path d="M61 693 c78 -100 164 -194 176 -191 12 2 103 184 103 204 0 2 -66 4
-146 4 -138 0 -146 -1 -133 -17z"/>
<path d="M341 668 c-10 -24 -30 -69 -45 -102 -29 -66 -32 -79 -13 -74 27 7
247 130 247 138 0 22 -118 80 -162 80 -5 0 -17 -19 -27 -42z"/>
<path d="M2698 610 c-100 -30 -153 -118 -128 -211 13 -49 65 -92 138 -114 32
-9 71 -21 89 -26 46 -15 83 -47 83 -74 0 -69 -130 -79 -209 -16 l-36 29 -42
-30 c-24 -16 -43 -33 -43 -38 0 -18 85 -80 132 -96 77 -25 183 -17 237 19 70
46 100 141 66 207 -23 45 -72 76 -169 106 -105 32 -142 59 -133 96 16 62 128
63 198 1 15 -12 22 -11 63 14 25 15 46 31 46 35 0 3 -19 23 -42 42 -65 56
-172 80 -250 56z"/>
<path d="M413 542 c-67 -37 -123 -72 -123 -78 0 -13 -1 -12 114 -55 73 -27 80
-28 102 -14 47 31 74 119 54 179 -6 20 -15 36 -18 36 -4 0 -62 -31 -129 -68z"/>
<path d="M725 388 c-4 -123 -5 -254 -3 -293 l3 -70 53 -3 52 -3 0 295 0 296
-49 0 -49 0 -7 -222z"/>
<path d="M1780 314 l0 -295 53 3 52 3 3 55 3 55 152 153 152 152 -70 0 -70 0
-82 -82 -83 -83 0 168 0 167 -55 0 -55 0 0 -296z"/>
<path d="M2390 314 l0 -295 53 3 52 3 3 293 2 292 -55 0 -55 0 0 -296z"/>
<path d="M0 425 c0 -38 4 -65 10 -65 14 0 193 90 188 95 -3 3 -175 35 -190 35
-5 0 -8 -29 -8 -65z"/>
<path d="M1016 435 c-81 -29 -135 -110 -136 -203 -1 -207 270 -291 386 -120
118 174 -52 394 -250 323z m130 -103 c45 -36 58 -106 29 -162 -31 -60 -103
-69 -151 -19 -25 26 -29 38 -29 85 0 50 3 59 33 85 37 34 85 38 118 11z"/>
<path d="M1461 424 c-202 -101 -129 -403 97 -404 29 0 67 7 85 16 33 17 97 73
97 85 0 3 -18 19 -41 34 l-41 27 -30 -31 c-44 -45 -97 -44 -144 3 -26 26 -34
42 -34 70 0 110 103 165 175 93 l33 -33 41 29 c47 32 45 48 -12 90 -71 53
-147 60 -226 21z"/>
<path d="M112 386 c-65 -32 -81 -45 -70 -53 16 -13 278 -96 284 -90 3 2 -12
41 -32 86 -26 58 -42 81 -55 81 -10 0 -21 5 -24 10 -9 14 -11 14 -103 -34z"/>
<path d="M277 423 c-8 -14 67 -173 82 -173 22 0 121 83 118 100 -1 8 -38 28
-87 47 -90 34 -106 38 -113 26z"/>
<path d="M535 340 c-3 -5 -14 -10 -23 -10 -9 0 -43 -21 -75 -47 -70 -57 -70
-56 101 -67 l112 -6 -6 27 c-16 70 -88 138 -109 103z"/>
<path d="M30 304 c0 -17 134 -164 150 -164 26 0 143 71 133 81 -7 7 -262 89
-277 89 -3 0 -6 -3 -6 -6z"/>
<path d="M0 160 c0 -72 3 -130 6 -130 13 0 134 76 139 88 5 14 -120 172 -136
172 -5 0 -9 -58 -9 -130z"/>
<path d="M1986 169 l-16 -53 47 -48 c46 -47 48 -48 110 -48 35 0 63 2 63 5 0
3 -42 49 -94 102 l-94 96 -16 -54z"/>
<path d="M462 124 l87 -88 28 20 c37 28 62 63 69 101 6 30 4 32 -27 37 -19 3
-81 8 -139 11 l-105 6 87 -87z"/>
<path d="M263 162 c-34 -20 -64 -42 -67 -48 -2 -6 15 -34 37 -63 l42 -53 100
6 c100 5 145 13 145 25 -2 17 -148 161 -170 165 -18 4 -43 -5 -87 -32z"/>
<path d="M2232 134 c-46 -32 -18 -114 39 -114 46 0 75 42 59 84 -16 44 -60 57
-98 30z"/>
<path d="M67 47 l-68 -42 66 -3 c36 -2 93 -2 127 0 l60 3 -33 42 c-43 54 -64
53 -152 0z"/>
</g>
</svg>
