<?xml version="1.0" encoding="utf-8"?>
<!-- Generator: Adobe Illustrator 19.0.0, SVG Export Plug-In . SVG Version: 6.00 Build 0)  -->
<svg version="1.1" id="Layer_1" xmlns="http://www.w3.org/2000/svg" xmlns:xlink="http://www.w3.org/1999/xlink" x="0px" y="0px"
	 viewBox="0 0 100 100" style="enable-background:new 0 0 100 100;" xml:space="preserve">
<style type="text/css">
	.st0{filter:url(#Adobe_OpacityMaskFilter);}
	.st1{fill:#FFFFFF;}
	.st2{mask:url(#b_1_);fill:#4A494A;}
	.st3{filter:url(#Adobe_OpacityMaskFilter_1_);}
	.st4{mask:url(#d_1_);fill:#4A494A;}
	.st5{filter:url(#Adobe_OpacityMaskFilter_2_);}
	.st6{mask:url(#f_1_);fill:#4A494A;}
	.st7{filter:url(#Adobe_OpacityMaskFilter_3_);}
	.st8{mask:url(#h_1_);fill:#4A494A;}
	.st9{filter:url(#Adobe_OpacityMaskFilter_4_);}
	.st10{mask:url(#j_1_);fill:#4A494A;}
	.st11{filter:url(#Adobe_OpacityMaskFilter_5_);}
	.st12{mask:url(#l_1_);fill:#4A494A;}
	.st13{filter:url(#Adobe_OpacityMaskFilter_6_);}
	.st14{mask:url(#n_1_);fill:#4A494A;}
	.st15{filter:url(#Adobe_OpacityMaskFilter_7_);}
	.st16{mask:url(#p_1_);fill:#4A494A;}
</style>
<g id="XMLID_10_">
	<defs>
		<filter id="Adobe_OpacityMaskFilter" filterUnits="userSpaceOnUse" x="13.2" y="17.1" width="49.3" height="30.8">
			<feColorMatrix  type="matrix" values="1 0 0 0 0  0 1 0 0 0  0 0 1 0 0  0 0 0 1 0"/>
		</filter>
	</defs>
	<mask maskUnits="userSpaceOnUse" x="13.2" y="17.1" width="49.3" height="30.8" id="b_1_">
		<g id="XMLID_39_" class="st0">
			<path id="a_1_" class="st1" d="M8.5,96.8h83.1V3.2H8.5L8.5,96.8z"/>
		</g>
	</mask>
	<path id="XMLID_8_" class="st2" d="M21.8,17.1L16,20.5c-3.8,2.2-3.8,5.5,0,7.7L50,48l12.5-7.3L21.8,17.1L21.8,17.1z"/>
	<defs>
		<filter id="Adobe_OpacityMaskFilter_1_" filterUnits="userSpaceOnUse" x="37.5" y="3.2" width="53.1" height="28.4">
			<feColorMatrix  type="matrix" values="1 0 0 0 0  0 1 0 0 0  0 0 1 0 0  0 0 0 1 0"/>
		</filter>
	</defs>
	<mask maskUnits="userSpaceOnUse" x="37.5" y="3.2" width="53.1" height="28.4" id="d_1_">
		<g id="XMLID_36_" class="st3">
			<path id="c_1_" class="st1" d="M8.5,96.8h83.1V3.2H8.5L8.5,96.8z"/>
		</g>
	</mask>
	<path id="XMLID_7_" class="st4" d="M78.2,31.6l12.4-7.2L57.3,5C53,2.5,46.7,2.7,42.9,4.8L37.5,8L78.2,31.6z"/>
	<defs>
		<filter id="Adobe_OpacityMaskFilter_2_" filterUnits="userSpaceOnUse" x="23.4" y="9" width="53.1" height="30.8">
			<feColorMatrix  type="matrix" values="1 0 0 0 0  0 1 0 0 0  0 0 1 0 0  0 0 0 1 0"/>
		</filter>
	</defs>
	<mask maskUnits="userSpaceOnUse" x="23.4" y="9" width="53.1" height="30.8" id="f_1_">
		<g id="XMLID_33_" class="st5">
			<path id="e_1_" class="st1" d="M8.5,96.8h83.1V3.2H8.5L8.5,96.8z"/>
		</g>
	</mask>
	<path id="XMLID_6_" class="st6" d="M64.1,39.7l12.4-7.2L35.8,9l-12.4,7.2L64.1,39.7z"/>
	<g id="XMLID_27_">
		<defs>
			<filter id="Adobe_OpacityMaskFilter_3_" filterUnits="userSpaceOnUse" x="8.5" y="28.9" width="40.6" height="43.3">
				<feColorMatrix  type="matrix" values="1 0 0 0 0  0 1 0 0 0  0 0 1 0 0  0 0 0 1 0"/>
			</filter>
		</defs>
		<mask maskUnits="userSpaceOnUse" x="8.5" y="28.9" width="40.6" height="43.3" id="h_1_">
			<g id="XMLID_30_" class="st7">
				<path id="g_1_" class="st1" d="M8.5,96.8h83.1V3.2H8.5L8.5,96.8z"/>
			</g>
		</mask>
		<path id="XMLID_5_" class="st8" d="M49.1,72.3l0-22.7L15,29.8c-3.8-2.2-6.6,0-6.6,4.4l0,14.5L49.1,72.3L49.1,72.3z"/>
	</g>
	<g id="XMLID_23_">
		<defs>
			<filter id="Adobe_OpacityMaskFilter_4_" filterUnits="userSpaceOnUse" x="8.5" y="50.5" width="40.6" height="46.3">
				<feColorMatrix  type="matrix" values="1 0 0 0 0  0 1 0 0 0  0 0 1 0 0  0 0 0 1 0"/>
			</filter>
		</defs>
		<mask maskUnits="userSpaceOnUse" x="8.5" y="50.5" width="40.6" height="46.3" id="j_1_">
			<g id="XMLID_26_" class="st9">
				<path id="i_1_" class="st1" d="M8.5,96.8h83.1V3.2H8.5L8.5,96.8z"/>
			</g>
		</mask>
		<path id="XMLID_4_" class="st10" d="M8.5,50.5l0,14.7c0,5.6,3.1,9.8,6.9,12l33.7,19.6V74.2L8.5,50.5L8.5,50.5z"/>
	</g>
	<g id="XMLID_19_">
		<defs>
			<filter id="Adobe_OpacityMaskFilter_5_" filterUnits="userSpaceOnUse" x="50.9" y="26" width="40.6" height="38.3">
				<feColorMatrix  type="matrix" values="1 0 0 0 0  0 1 0 0 0  0 0 1 0 0  0 0 0 1 0"/>
			</filter>
		</defs>
		<mask maskUnits="userSpaceOnUse" x="50.9" y="26" width="40.6" height="38.3" id="l_1_">
			<g id="XMLID_22_" class="st11">
				<path id="k_1_" class="st1" d="M8.5,96.8h83.1V3.2H8.5L8.5,96.8z"/>
			</g>
		</mask>
		<path id="XMLID_3_" class="st12" d="M91.5,40.6V26l-33,19.2c-4.4,2.6-7.6,7.2-7.6,12.4v6.6L91.5,40.6L91.5,40.6z"/>
	</g>
	<g id="XMLID_15_">
		<defs>
			<filter id="Adobe_OpacityMaskFilter_6_" filterUnits="userSpaceOnUse" x="50.9" y="50.7" width="26.6" height="29.6">
				<feColorMatrix  type="matrix" values="1 0 0 0 0  0 1 0 0 0  0 0 1 0 0  0 0 0 1 0"/>
			</filter>
		</defs>
		<mask maskUnits="userSpaceOnUse" x="50.9" y="50.7" width="26.6" height="29.6" id="n_1_">
			<g id="XMLID_18_" class="st13">
				<path id="m_1_" class="st1" d="M8.5,96.8h83.1V3.2H8.5L8.5,96.8z"/>
			</g>
		</mask>
		<path id="XMLID_2_" class="st14" d="M77.5,64.8V50.7L50.9,66.1v14.2L77.5,64.8z"/>
	</g>
	<g id="XMLID_11_">
		<defs>
			<filter id="Adobe_OpacityMaskFilter_7_" filterUnits="userSpaceOnUse" x="50.9" y="75" width="12.5" height="21.9">
				<feColorMatrix  type="matrix" values="1 0 0 0 0  0 1 0 0 0  0 0 1 0 0  0 0 0 1 0"/>
			</filter>
		</defs>
		<mask maskUnits="userSpaceOnUse" x="50.9" y="75" width="12.5" height="21.9" id="p_1_">
			<g id="XMLID_14_" class="st15">
				<path id="o_1_" class="st1" d="M8.5,96.8h83.1V3.2H8.5L8.5,96.8z"/>
			</g>
		</mask>
		<path id="XMLID_1_" class="st16" d="M50.9,82.2v14.6l12.5-7.3V75L50.9,82.2z"/>
	</g>
</g>
</svg>
