<?xml version="1.0" encoding="utf-8"?>
<!-- Generator: Adobe Illustrator 19.0.0, SVG Export Plug-In . SVG Version: 6.00 Build 0)  -->
<svg version="1.1" id="svg" xmlns="http://www.w3.org/2000/svg" xmlns:xlink="http://www.w3.org/1999/xlink" x="0px" y="0px"
	 viewBox="-105 197 400 400" style="enable-background:new -105 197 400 400;" xml:space="preserve">
<style type="text/css">
	.st0{fill:#626262;}
</style>
<g id="svgg">
	<path id="path0" class="st0" d="M91.8,228.9c-0.8,1.8-23.8,40.5-51.2,85.9c-27.4,45.4-50,83.2-50.3,83.9
		c-0.4,0.9,14.5,10.2,52.1,32.4l52.7,31.1l52.6-31.1c37.8-22.4,52.5-31.5,52.1-32.5c-1.9-5-104.3-173.1-105.4-173.1
		C93.8,225.6,92.6,227.1,91.8,228.9 M-9.5,421.1c2,3.5,104.2,147.3,104.7,147.3c0.7,0,105.2-147.7,104.8-148.1
		c-0.4-0.4-98.1,57.2-102.1,60.2l-2.5,1.8l-50.6-29.9C16.9,436-6.8,421.9-8.1,421.1C-10.2,419.8-10.3,419.8-9.5,421.1"/>
</g>
</svg>
