<?xml version="1.0" standalone="no"?>
<!DOCTYPE svg PUBLIC "-//W3C//DTD SVG 20010904//EN"
 "http://www.w3.org/TR/2001/REC-SVG-20010904/DTD/svg10.dtd">
<svg version="1.0" xmlns="http://www.w3.org/2000/svg"
 width="600.000000pt" height="401.000000pt" viewBox="0 0 600.000000 401.000000"
 preserveAspectRatio="xMidYMid meet">
<metadata>
Created by potrace 1.16, written by Peter Selinger 2001-2019
</metadata>
<g transform="translate(0.000000,401.000000) scale(0.100000,-0.100000)"
fill="#000000" stroke="none">
<path d="M0 2005 l0 -2005 3000 0 3000 0 0 2005 0 2005 -3000 0 -3000 0 0
-2005z m3025 1447 l20 -67 79 -5 79 -5 -61 -43 c-34 -24 -62 -47 -62 -52 0 -5
11 -39 24 -75 13 -36 21 -65 19 -65 -2 0 -31 21 -64 46 l-59 45 -59 -45 c-33
-25 -62 -46 -65 -46 -2 0 6 32 20 72 13 39 24 72 24 73 0 1 -28 21 -61 46
l-61 44 78 5 78 5 20 68 c10 37 22 67 25 67 3 0 15 -30 26 -68z m-557 -254
l75 -3 -61 -43 -61 -42 25 -72 c13 -39 24 -73 24 -75 0 -2 -24 14 -52 35 -29
21 -59 42 -65 46 -8 4 -36 -11 -73 -39 -33 -25 -60 -42 -60 -37 0 5 9 35 20
67 11 32 20 63 20 69 0 6 -27 29 -59 51 l-59 40 77 5 76 5 24 75 24 75 26 -77
25 -77 74 -3z m1217 67 l20 -60 75 -5 75 -5 -57 -40 c-32 -22 -58 -44 -58 -50
0 -5 9 -39 20 -75 11 -36 20 -66 20 -68 0 -2 -27 18 -60 43 -68 53 -62 53
-152 -17 -21 -16 -38 -28 -38 -26 0 3 11 37 24 76 l25 72 -61 42 -61 43 75 3
75 3 23 76 c14 41 26 69 29 62 3 -8 14 -41 26 -74z m-1696 -547 l76 -3 -62
-43 -61 -44 24 -71 c13 -38 23 -72 21 -73 -1 -1 -29 17 -61 41 -32 25 -64 42
-70 38 -6 -4 -35 -24 -63 -45 -29 -21 -53 -37 -53 -35 0 2 9 30 20 62 11 32
20 65 20 74 0 9 -28 35 -62 59 l-62 42 80 0 80 0 24 76 24 77 25 -76 25 -76
75 -3z m2269 0 l75 -3 -61 -43 -61 -42 25 -72 c13 -39 24 -73 24 -75 0 -2 -27
16 -59 41 -33 25 -62 46 -66 46 -4 0 -33 -21 -66 -46 -59 -46 -60 -46 -53 -17
4 15 15 49 24 75 l17 46 -59 44 -60 43 73 5 74 5 24 75 24 75 26 -77 25 -77
74 -3z m-2543 -585 l20 -66 78 2 c42 1 77 0 77 -2 0 -3 -26 -24 -57 -47 -32
-24 -59 -44 -61 -46 -2 -1 6 -32 17 -70 12 -37 20 -69 18 -70 -2 -2 -28 14
-57 36 -30 22 -57 40 -62 40 -5 0 -33 -18 -62 -40 -29 -22 -55 -40 -58 -40 -3
0 5 32 18 72 13 40 20 74 15 77 -64 42 -111 78 -111 85 0 4 34 6 75 4 l76 -3
22 71 c12 40 24 70 27 67 3 -2 14 -34 25 -70z m2620 2 l18 -64 81 -3 81 -3
-62 -44 c-35 -24 -63 -47 -63 -51 0 -4 9 -33 20 -65 11 -32 20 -62 20 -67 0
-5 -28 11 -62 35 l-63 45 -55 -44 c-30 -24 -58 -43 -62 -44 -4 0 4 32 18 72
13 39 23 72 21 73 -1 1 -29 22 -61 46 l-60 44 79 5 78 5 20 67 c11 37 23 65
27 63 4 -3 16 -34 25 -70z m-2445 -655 l21 -69 81 -3 81 -3 -58 -40 c-32 -22
-62 -42 -66 -45 -4 -3 3 -36 17 -74 13 -38 23 -70 21 -72 -2 -3 -15 4 -28 14
-13 10 -40 30 -59 44 l-35 27 -59 -45 c-33 -24 -61 -42 -63 -41 -2 2 6 30 17
62 11 32 20 64 20 71 0 7 -27 33 -61 56 l-61 43 79 3 79 3 23 69 c12 39 24 70
26 70 2 0 13 -31 25 -70z m2269 0 l21 -69 83 -3 82 -3 -50 -33 c-92 -60 -87
-49 -60 -127 14 -38 23 -70 22 -72 -2 -1 -30 17 -63 41 l-60 44 -59 -44 c-32
-24 -60 -42 -62 -41 -2 2 6 30 17 62 11 32 20 64 20 71 0 7 -27 33 -61 56
l-61 43 79 3 79 3 23 69 c12 39 24 70 26 70 1 0 13 -31 24 -70z m-1789 -480
l21 -69 80 -3 81 -3 -65 -47 -65 -46 24 -68 c14 -36 23 -69 20 -71 -2 -3 -29
14 -59 36 -29 23 -57 41 -62 41 -5 0 -33 -18 -62 -41 -30 -22 -56 -39 -59 -37
-2 3 5 31 16 63 11 32 20 64 20 71 0 7 -28 32 -62 56 l-61 43 81 3 81 3 21 69
c12 39 23 70 25 70 2 0 13 -31 25 -70z m1411 -72 l79 -3 -64 -47 -65 -47 24
-70 c13 -39 22 -71 19 -71 -3 0 -29 18 -58 40 -29 22 -57 40 -62 40 -5 0 -34
-18 -63 -40 -30 -22 -56 -38 -58 -36 -2 1 6 29 17 61 11 32 20 63 20 70 0 6
-28 31 -61 56 l-61 44 79 3 79 3 24 72 23 72 24 -72 24 -72 80 -3z m-756 -106
l20 -67 79 -3 79 -3 -62 -45 c-33 -24 -61 -45 -61 -47 0 -1 9 -31 20 -67 11
-36 20 -68 20 -72 0 -5 -27 13 -60 38 l-59 47 -53 -40 c-29 -21 -58 -42 -65
-46 -7 -5 -2 22 12 64 14 39 23 75 20 79 -2 4 -30 25 -61 46 l-57 39 76 3 76
3 23 69 c12 39 24 70 27 70 4 0 15 -30 26 -68z"/>
</g>
</svg>
