<?xml version="1.0" encoding="utf-8"?>
<!-- Generator: Adobe Illustrator 19.0.0, SVG Export Plug-In . SVG Version: 6.00 Build 0)  -->
<svg version="1.1" id="Layer_1" xmlns="http://www.w3.org/2000/svg" xmlns:xlink="http://www.w3.org/1999/xlink" x="0px" y="0px"
	 viewBox="-255 347 100 100" style="enable-background:new -255 347 100 100;" xml:space="preserve">
<style type="text/css">
	.st0{fill:#626262;}
</style>
<path id="XMLID_4_" class="st0" d="M-161,402.8c-1,3.7-1.6,7.7-3.1,11.2c-6.8,16-18.9,25.5-35.9,27.6c-12.9,1.6-24.4-2.3-34.2-11
	c-1.9-1.7-1.9-1.9-0.2-3.6c9.3-9.5,18.8-19.2,28.1-28.7c1.1-1.1,2.2-1.6,3.7-1.6c13.9,0,27.7,0,41.6,0
	C-161,398.7-161,400.7-161,402.8z"/>
<path id="XMLID_3_" class="st0" d="M-199.3,352.1c3.7,1,7.4,1.9,11,3.1c2.2,0.8,4.4,2.2,6.5,3.3c1.1,0.6,1.2,1.3,0.3,2.1
	c-1.5,1.4-2.9,2.9-4.3,4.4c-0.8,0.9-1.6,1-2.8,0.4c-7.2-3.9-14.9-5.1-23-3.5c-14.5,2.8-25.6,14.5-28,29.4c-1.2,7.7,0,15.1,3.7,21.9
	c0.6,1.2,0.6,2-0.4,3.1c-1.5,1.4-2.9,2.8-4.2,4.3c-0.9,1-1.6,0.9-2.3-0.3c-3-4.8-5-10.1-6-15.7c-0.1-0.5-0.3-1-0.4-1.5
	c0-4.2,0-8.2,0-12.4c0.2-0.6,0.4-1.1,0.5-1.7c3.3-16.4,12.5-27.8,27.7-34.1c3.2-1.3,6.7-1.9,10.1-2.9
	C-206.9,352.1-203.1,352.1-199.3,352.1z"/>
<path id="XMLID_2_" class="st0" d="M-165.5,379.2c0,4.4-4.1,8.4-8.3,8.3c-4.4-0.1-8.2-4-8.2-8.4c0-4.5,3.9-8.5,8.3-8.4
	C-169.2,370.9-165.5,374.7-165.5,379.2z"/>
</svg>
