<?xml version="1.0" encoding="utf-8"?>
<!-- Generator: Adobe Illustrator 19.0.0, SVG Export Plug-In . SVG Version: 6.00 Build 0)  -->
<svg version="1.1" id="Layer_1" xmlns="http://www.w3.org/2000/svg" xmlns:xlink="http://www.w3.org/1999/xlink" x="0px" y="0px"
	 viewBox="0 0 100 100" style="enable-background:new 0 0 100 100;" xml:space="preserve">
<style type="text/css">
	.st0{fill:#626262;}
</style>
<path id="XMLID_66_" class="st0" d="M50,6c0.7,0.2,1.2,0.3,1.7,0.5c16.3,5.7,31.5,13.3,45,24.3c1.3,1,1.6,1.9,1.2,3.5
	C93.7,53,85.6,69.6,71,82.5c-5.7,5-12.1,8.8-19.2,11.3c-1.1,0.4-2.6,0.4-3.6,0c-16-5.9-27.3-17.2-35.6-31.7
	c-5-8.7-8.4-18.1-10.5-27.9c-0.3-1.4-0.1-2.2,1-3.1C16.8,19.8,32.2,11.9,48.9,6.3C49.3,6.1,49.7,6,50,6z M74.3,57.8
	c7.2-2.1,10.1-11,5.7-17c-1.6-2.2-4-3.7-6.1-5.5c-0.5-0.5-1-0.9-1.4-1.5c-0.6-0.8-1-2-1.8-2.5c-5.9-3.5-12.2-6-19-7.3
	c-3.9-0.7-7.9-1.4-12.2-0.5c1.1,1.2,1.9,2.1,2.9,3.2c-0.8,0.1-1.3,0.3-1.9,0.3c-13.2,1.5-23,10.3-25.4,23.4c-0.5,2.4-1,5.4,0,7.3
	c5.6,11.1,13.2,20.6,24,26.8c12.1,7,9.5,6.8,21.8,0c6.5-3.6,11.7-8.9,16.4-15c-1.1-0.2-2-0.2-2.7-0.5c-2.3-0.8-4.7-1.4-6.7-2.7
	c-4-2.6-4.5-8.5-1.2-12c1.5-1.7,4.4-2.3,6.3-1.4C74.9,54.2,75.2,55.7,74.3,57.8z"/>
<path id="XMLID_2_" class="st0" d="M69,33.3c-4.3,2.7-7.6,1.6-10.6-1.1c0.1-0.3,0.1-0.6,0.2-0.9C61.9,31.9,65.3,32.6,69,33.3z"/>
</svg>
