<?xml version="1.0"?>
<svg xmlns="http://www.w3.org/2000/svg" height="512px" viewBox="0 -51 512 512" width="512px"><path d="m452.5 0v211.734375h-393v-211.734375h-59.5v410.417969h512v-410.417969zm44.5 395.414062h-482v-132.886718h230v-15h-230v-232.527344h29.5v211.734375h423v-211.734375h29.5zm0 0" fill="#ce514d"/><path d="m231.582031 139.640625v59.59375h15v-55.574219l11.707031-20.277344v-59.613281h-61.914062v59.613281l11.707031 20.277344v55.574219h15v-59.59375l-6.214843-10.769531h11.304687v-15h-16.796875v-35.101563h31.914062v40.589844zm0 0" fill="#ce514d"/><path d="m103.980469 199.234375h15v-22.214844l-35.644531-20.578125v-52.023437l11.984374-6.917969v50.804688l33.070313 19.09375 33.066406-19.09375v-50.804688l11.984375 6.917969v52.023437l-35.644531 20.578125v22.214844h15v-13.554687l35.644531-20.578126v-69.34375l-41.984375-24.238281v68.125l-18.066406 10.433594-18.070313-10.433594v-68.125l-41.984374 24.238281v69.34375l35.644531 20.578126zm0 0" fill="#ce514d"/><path d="m377.167969 199.234375v-51.699219h11.617187l8.316406-8.316406v-1.890625h8.003907l10.207031 10.207031h30.570312v-65.785156h-30.574218l-10.207032 10.207031h-8v-1.890625l-8.316406-8.316406h-102.25l-24.277344 24.277344v35.523437h24.296876l11.820312-11.820312v-8.742188l3.121094-3.121093h8.847656v21.351562l8.316406 8.3125h11.617188v51.703125h15v-51.703125h16.890625v51.703125zm42.714843-100.84375 1.640626-1.640625h9.359374v35.785156h-9.359374l-1.640626-1.640625zm-22.78125 8.566406h7.78125v15.371094h-7.78125zm-86.757812-4.089843h-15.058594l-11.910156 11.910156v8.738281l-3.035156 3.035156h-3.082032v-14.308593l15.492188-15.492188h17.59375zm15 29.667968v-35.785156h56.757812v35.785156zm0 0" fill="#ce514d"/><path d="m72 44.414062h368v15h-368zm0 0" fill="#ce514d"/><path d="m72 18h368v15h-368zm0 0" fill="#ce514d"/><path d="m472 294.234375h15v83.683594h-15zm0 0" fill="#ce514d"/><path d="m472 244.234375h15v15h-15zm0 0" fill="#ce514d"/><path d="m472 269.234375h15v15h-15zm0 0" fill="#ce514d"/><path d="m474.667969 69.808594h15v15h-15zm0 0" fill="#ce514d"/><path d="m474.667969 44.808594h15v15h-15zm0 0" fill="#ce514d"/><path d="m474.667969 94.808594h15v83.683594h-15zm0 0" fill="#ce514d"/></svg>
