<?xml version="1.0" standalone="no"?>
<!DOCTYPE svg PUBLIC "-//W3C//DTD SVG 20010904//EN"
 "http://www.w3.org/TR/2001/REC-SVG-20010904/DTD/svg10.dtd">
<svg version="1.0" xmlns="http://www.w3.org/2000/svg"
 width="317.000000pt" height="317.000000pt" viewBox="0 0 317.000000 317.000000"
 preserveAspectRatio="xMidYMid meet">
<metadata>
Created by potrace 1.11, written by Peter Selinger 2001-2013
</metadata>
<g transform="translate(0.000000,317.000000) scale(0.100000,-0.100000)"
fill="#000000" stroke="none">
<path d="M619 3047 c-132 -50 -206 -161 -197 -296 8 -107 64 -193 158 -242 55
-28 175 -36 227 -14 39 17 19 34 193 -175 61 -74 120 -145 131 -158 24 -27 24
-23 -7 -58 -41 -48 -102 -183 -115 -258 -7 -43 -9 -105 -5 -161 l6 -91 -62
-23 c-35 -13 -92 -34 -128 -47 -36 -13 -112 -41 -169 -63 l-104 -40 -38 43
c-76 86 -224 117 -330 69 -144 -65 -212 -243 -146 -385 125 -273 532 -200 553
98 2 32 6 59 8 61 5 6 449 173 458 173 3 0 19 -21 34 -47 70 -120 203 -218
345 -255 l84 -22 1 -105 c1 -58 2 -153 3 -211 1 -58 2 -114 2 -126 -1 -16 -11
-24 -42 -33 -53 -16 -131 -89 -160 -149 -32 -67 -32 -180 -1 -243 49 -99 136
-159 243 -167 123 -9 231 53 283 161 30 64 36 109 24 179 -17 97 -89 187 -175
217 -21 8 -41 18 -44 24 -4 5 -8 57 -9 116 -1 58 -2 157 -3 219 -2 62 0 116 3
120 3 4 19 9 35 10 39 5 150 49 199 80 59 37 131 108 167 164 23 35 36 47 48
43 8 -3 121 -42 250 -85 129 -44 236 -82 239 -84 2 -3 5 -29 7 -58 11 -243
321 -360 494 -186 129 129 106 352 -47 449 -60 38 -100 48 -175 45 -79 -3
-145 -35 -196 -92 l-38 -43 -248 85 c-137 46 -250 86 -252 88 -2 1 2 27 7 57
12 62 11 173 -3 239 -5 25 -24 78 -43 119 -19 41 -34 75 -34 76 0 3 332 279
346 288 7 4 34 -6 60 -21 43 -24 60 -27 134 -27 75 0 91 3 138 30 59 32 91 66
125 129 31 59 31 193 0 252 -34 63 -66 97 -125 129 -47 27 -63 30 -138 30 -75
0 -91 -3 -138 -29 -55 -31 -96 -74 -127 -136 -24 -47 -30 -153 -12 -211 l14
-46 -76 -61 c-42 -34 -88 -72 -103 -84 -14 -13 -60 -51 -102 -86 l-76 -64 -42
35 c-179 146 -444 166 -646 49 -24 -13 -44 -23 -45 -21 -9 12 -142 175 -147
179 -3 3 -24 27 -45 55 -22 27 -48 59 -59 70 -47 51 -48 58 -20 109 78 139 19
322 -128 397 -53 27 -166 36 -219 16z"/>
</g>
</svg>
