<svg xmlns="http://www.w3.org/2000/svg" viewBox="0 0 409.12 352.43"><title>dappnode-logo-gelee</title><g id="Layer_2" data-name="Layer 2"><g id="Layer_1-2" data-name="Layer 1"><ellipse cx="144.87" cy="185.93" rx="28.5" ry="29" style="fill:#2FBCB2"/><circle cx="101.87" cy="134.43" r="14.5" style="fill:#2FBCB2"/><line x1="100.37" y1="132.93" x2="144.37" y2="185.93" style="fill:none;stroke:#2FBCB2;stroke-miterlimit:10;stroke-width:6px"/><circle cx="195.87" cy="143.43" r="14.5" style="fill:#2FBCB2"/><line x1="197.37" y1="141.93" x2="144.37" y2="185.93" style="fill:none;stroke:#2FBCB2;stroke-miterlimit:10;stroke-width:6px"/><circle cx="81.22" cy="209.62" r="14.5" style="fill:#2FBCB2"/><line x1="79.31" y1="210.55" x2="143.75" y2="186.22" style="fill:none;stroke:#2FBCB2;stroke-miterlimit:10;stroke-width:6px"/><circle cx="145.55" cy="252.46" r="14.5" style="fill:#2FBCB2"/><line x1="145.78" y1="254.57" x2="144.61" y2="185.7" style="fill:none;stroke:#2FBCB2;stroke-miterlimit:10;stroke-width:6px"/><circle cx="210.07" cy="210.53" r="14.5" style="fill:#2FBCB2"/><line x1="212.13" y1="211.02" x2="146.89" y2="188.91" style="fill:none;stroke:#2FBCB2;stroke-miterlimit:10;stroke-width:6px"/><ellipse cx="176.51" cy="81.09" rx="23.54" ry="23.96" transform="translate(63.09 244.27) rotate(-81.82)" style="fill:#2FBCB2"/><circle cx="101.87" cy="73.43" r="14.5" style="fill:#2FBCB2"/><line x1="99.75" y1="73.4" x2="168.24" y2="80.77" style="fill:none;stroke:#2FBCB2;stroke-miterlimit:10;stroke-width:6px"/><line x1="168.22" y1="81.03" x2="196.52" y2="143.84" style="fill:none;stroke:#2FBCB2;stroke-miterlimit:10;stroke-width:6px"/><line x1="195.71" y1="142.84" x2="264.51" y2="139.42" style="fill:none;stroke:#2FBCB2;stroke-miterlimit:10;stroke-width:6px"/><circle cx="160.06" cy="14.5" r="14.5" style="fill:#2FBCB2"/><line x1="159.57" y1="12.44" x2="169.18" y2="80.65" style="fill:none;stroke:#2FBCB2;stroke-miterlimit:10;stroke-width:6px"/><ellipse cx="275.3" cy="141.68" rx="28.5" ry="29" transform="translate(15.25 321.57) rotate(-62.75)" style="fill:#2FBCB2"/><circle cx="252.81" cy="76.88" r="14.5" style="fill:#2FBCB2"/><line x1="252.17" y1="74.86" x2="267.02" y2="142.12" style="fill:none;stroke:#2FBCB2;stroke-miterlimit:10;stroke-width:6px"/><ellipse cx="273.79" cy="207.56" rx="14.56" ry="14.1" transform="translate(-69.81 281.37) rotate(-49.57)" style="fill:#2FBCB2"/><line x1="265.88" y1="209.65" x2="267.83" y2="141.4" style="fill:none;stroke:#2FBCB2;stroke-miterlimit:10;stroke-width:6px"/><circle cx="327.33" cy="171.72" r="14.5" style="fill:#2FBCB2"/><line x1="329.33" y1="172.44" x2="267.06" y2="142.98" style="fill:none;stroke:#2FBCB2;stroke-miterlimit:10;stroke-width:6px"/><circle cx="319.9" cy="102.05" r="14.5" style="fill:#2FBCB2"/><line x1="321.47" y1="100.62" x2="266.49" y2="142.12" style="fill:none;stroke:#2FBCB2;stroke-miterlimit:10;stroke-width:6px"/><circle cx="228.1" cy="47.52" r="14.5" style="fill:#2FBCB2"/><line x1="229.84" y1="46.3" x2="170.01" y2="80.44" style="fill:none;stroke:#2FBCB2;stroke-miterlimit:10;stroke-width:6px"/></g><g id="Layer_2-2" data-name="Layer 2"><path d="M8.05,333.93v-64.4H24.24a33.1,33.1,0,0,1,11.32,1.84A25.44,25.44,0,0,1,44,276.25a26.56,26.56,0,0,1,5.61,7.22,34.22,34.22,0,0,1,3.27,8.74,44.09,44.09,0,0,1,1,9.52,44.31,44.31,0,0,1-.92,9,34.4,34.4,0,0,1-3.13,8.69,27.46,27.46,0,0,1-5.57,7.46,24.91,24.91,0,0,1-8.6,5.1,33.79,33.79,0,0,1-11.77,1.93Zm11-10.3h6a16.88,16.88,0,0,0,8.23-1.93,14,14,0,0,0,5.48-5.2,25.71,25.71,0,0,0,2.85-7,32.56,32.56,0,0,0,.92-7.78,27.94,27.94,0,0,0-4.14-15.45q-4.14-6.43-12.33-6.44H19Z" transform="translate(-8.05)" style="fill:#000"/><path d="M98.21,333.93,94,319.77H73.56l-4.24,14.16H57.55l21.07-64.4h10.3L110,333.93ZM76.5,309.83H91l-5.71-19.14a49.76,49.76,0,0,1-1.56-7.17q-1.11,5.61-1.57,7.17Z" transform="translate(-8.05)" style="fill:#000"/><path d="M117.9,352.43V286.92h10.58v3.59a14.88,14.88,0,0,1,11.5-4.69q9.48,0,15,6.53t5.57,18.12q0,11.32-5.75,17.95A18.7,18.7,0,0,1,140.07,335q-7.37,0-11.59-4.88v17.39Zm20.61-27.51a10.18,10.18,0,0,0,8.42-3.73q3-3.72,3-10.72,0-6.71-3-10.67a10.06,10.06,0,0,0-8.51-3.95q-6.63,0-9.94,4.69v19.69Q131.8,324.91,138.51,324.92Z" transform="translate(-8.05)" style="fill:#000"/><path d="M172.27,352.43V286.92h10.58v3.59a14.88,14.88,0,0,1,11.5-4.69q9.48,0,15,6.53T215,310.47q0,11.32-5.75,17.95A18.68,18.68,0,0,1,194.44,335q-7.35,0-11.59-4.88v17.39Zm20.61-27.51a10.18,10.18,0,0,0,8.42-3.73q3-3.72,3-10.72,0-6.71-3-10.67a10.06,10.06,0,0,0-8.51-3.95q-6.63,0-9.94,4.69v19.69Q186.17,324.91,192.88,324.92Z" transform="translate(-8.05)" style="fill:#000"/><path d="M228.3,333.93v-64.4h6.53l23,47.84c.74,1.66,1.17,2.64,1.29,2.95-.06-1.17-.09-2.18-.09-3V269.53h6.44v64.4h-6.54L236,287c-.43-.85-.89-1.9-1.38-3.12q.09,1.47.09,3v47Z" transform="translate(-8.05)" style="fill:#000"/><path d="M312.71,328.46Q306.77,335,296.93,335t-15.78-6.49q-5.92-6.48-5.93-18.08t5.93-18.07q5.94-6.58,15.78-6.58t15.78,6.48q5.94,6.49,5.93,18.08T312.71,328.46Zm-15.78.78q7.08,0,11-5t4-13.85q0-8.92-3.87-13.84t-11.13-4.93q-7.37,0-11.18,4.83t-3.82,14q0,8.92,3.87,13.85T296.93,329.24Z" transform="translate(-8.05)" style="fill:#000"/><path d="M345.6,335q-9.3,0-14.67-6.67t-5.39-18q0-11.49,5.39-18t14.67-6.53a20.46,20.46,0,0,1,13.16,4.41v-19.5l6.43-3.22v66.42h-6.43v-4A17.86,17.86,0,0,1,345.6,335Zm.74-5.8a13.27,13.27,0,0,0,12.42-7.36V298.42a13.74,13.74,0,0,0-12.42-6.81q-6.81,0-10.45,4.88t-3.63,13.89q0,8.1,3.86,13.48A12,12,0,0,0,346.34,329.24Z" transform="translate(-8.05)" style="fill:#000"/><path d="M417.18,308.54c0,1.66-.07,3.16-.19,4.51h-33.3q.92,7.54,4.69,11.78a12.56,12.56,0,0,0,9.84,4.23,19.22,19.22,0,0,0,11.23-3.68l3.49,4.32A23.75,23.75,0,0,1,398,335q-9.66,0-15.37-7.13t-5.7-17.53q0-11.6,5.7-18.08T398,285.82a18.17,18.17,0,0,1,13.8,5.75Q417.17,297.31,417.18,308.54Zm-33.68-1.29h27.14q-.09-8.55-3.91-12.09a12.53,12.53,0,0,0-8.78-3.55q-6.81,0-10.44,4.14T383.5,307.25Z" transform="translate(-8.05)" style="fill:#000"/></g></g></svg>