<svg xmlns="http://www.w3.org/2000/svg" viewBox="0 0 275.12 266.96"><title>dappnode-background</title><g id="Layer_2" data-name="Layer 2"><g id="Layer_1-2" data-name="Layer 1"><ellipse cx="78.16" cy="185.93" rx="28.5" ry="29" style="fill:#00ffce"/><circle cx="35.16" cy="134.43" r="14.5" style="fill:#00ffce"/><line x1="33.66" y1="132.93" x2="77.66" y2="185.93" style="fill:none;stroke:#00ffce;stroke-miterlimit:10;stroke-width:6px"/><circle cx="129.16" cy="143.43" r="14.5" style="fill:#00ffce"/><line x1="130.66" y1="141.93" x2="77.66" y2="185.93" style="fill:none;stroke:#00ffce;stroke-miterlimit:10;stroke-width:6px"/><circle cx="14.5" cy="209.62" r="14.5" style="fill:#00ffce"/><line x1="12.6" y1="210.55" x2="77.04" y2="186.22" style="fill:none;stroke:#00ffce;stroke-miterlimit:10;stroke-width:6px"/><circle cx="78.84" cy="252.46" r="14.5" style="fill:#00ffce"/><line x1="79.07" y1="254.57" x2="77.89" y2="185.7" style="fill:none;stroke:#00ffce;stroke-miterlimit:10;stroke-width:6px"/><circle cx="143.35" cy="210.53" r="14.5" style="fill:#00ffce"/><line x1="145.42" y1="211.02" x2="80.18" y2="188.91" style="fill:none;stroke:#00ffce;stroke-miterlimit:10;stroke-width:6px"/><ellipse cx="101.75" cy="81.09" rx="23.54" ry="23.96" transform="translate(7.01 170.27) rotate(-81.82)" style="fill:#00ffce"/><circle cx="35.16" cy="73.43" r="14.5" style="fill:#00ffce"/><line x1="33.04" y1="73.4" x2="101.53" y2="80.77" style="fill:none;stroke:#00ffce;stroke-miterlimit:10;stroke-width:6px"/><line x1="101.51" y1="81.03" x2="129.81" y2="143.84" style="fill:none;stroke:#00ffce;stroke-miterlimit:10;stroke-width:6px"/><line x1="129" y1="142.84" x2="197.8" y2="139.42" style="fill:none;stroke:#00ffce;stroke-miterlimit:10;stroke-width:6px"/><circle cx="93.35" cy="14.5" r="14.5" style="fill:#00ffce"/><line x1="92.86" y1="12.44" x2="102.46" y2="80.65" style="fill:none;stroke:#00ffce;stroke-miterlimit:10;stroke-width:6px"/><ellipse cx="200.54" cy="141.68" rx="28.5" ry="29" transform="translate(-17.23 255.1) rotate(-62.75)" style="fill:#00ffce"/><circle cx="186.1" cy="76.88" r="14.5" style="fill:#00ffce"/><line x1="185.45" y1="74.86" x2="200.31" y2="142.12" style="fill:none;stroke:#00ffce;stroke-miterlimit:10;stroke-width:6px"/><ellipse cx="199.03" cy="207.56" rx="14.56" ry="14.1" transform="translate(-88.04 224.46) rotate(-49.57)" style="fill:#00ffce"/><line x1="199.16" y1="209.65" x2="201.11" y2="141.4" style="fill:none;stroke:#00ffce;stroke-miterlimit:10;stroke-width:6px"/><circle cx="260.62" cy="171.72" r="14.5" style="fill:#00ffce"/><line x1="262.61" y1="172.44" x2="200.35" y2="142.98" style="fill:none;stroke:#00ffce;stroke-miterlimit:10;stroke-width:6px"/><circle cx="253.19" cy="102.05" r="14.5" style="fill:#00ffce"/><line x1="254.76" y1="100.62" x2="199.78" y2="142.12" style="fill:none;stroke:#00ffce;stroke-miterlimit:10;stroke-width:6px"/><circle cx="161.39" cy="47.52" r="14.5" style="fill:#00ffce"/><line x1="163.13" y1="46.3" x2="103.3" y2="80.44" style="fill:none;stroke:#00ffce;stroke-miterlimit:10;stroke-width:6px"/></g></g></svg>