<svg xmlns="http://www.w3.org/2000/svg" viewBox="0 0 113.73 143.93"><title>riot-logo</title><g id="Layer_2" data-name="Layer 2"><g id="Layer_1-2" data-name="Layer 1"><g id="Layer_2-2" data-name="Layer 2"><g id="Design"><path d="M62.33,0H21.22A20.57,20.57,0,0,0,.66,20.56h0v102.8a20.56,20.56,0,1,0,41.12,0V102.79H62.33A51.4,51.4,0,1,0,62.33,0Z"/><path d="M21.22,138.81A15.45,15.45,0,0,1,5.79,123.37V20.57A15.45,15.45,0,0,1,21.09,5.14H62.33a46.26,46.26,0,0,1,0,92.51H36.65v25.71A15.45,15.45,0,0,1,21.22,138.81Z" style="fill:#fff"/><path d="M21.22,133.68a10.32,10.32,0,0,1-10.3-10.3V20.57A10.34,10.34,0,0,1,21,10.27H62.33a41.13,41.13,0,0,1,0,82.26H31.52v30.84A10.31,10.31,0,0,1,21.22,133.68Z"/><path d="M21.22,128.55A5.18,5.18,0,0,1,16,123.41V20.57a5.21,5.21,0,0,1,5-5.17H62.33a36,36,0,0,1,0,72H26.39v36A5.17,5.17,0,0,1,21.22,128.55Z" style="fill:#fff"/><path d="M21.27,82.28H62.33a30.88,30.88,0,1,0,0-61.75H21.22Z"/><path d="M26.39,77.15V25.66h36a25.75,25.75,0,0,1,0,51.49Z" style="fill:#fff"/><path d="M31.51,72V30.77H62.33a20.62,20.62,0,0,1,0,41.23Z"/><path d="M36.64,66.9v-31H62.33a15.5,15.5,0,0,1,0,31H36.64Z" style="fill:#fff"/><path d="M41.76,61.77V41.05H62.33a10.36,10.36,0,0,1,0,20.72H41.76Z"/><path d="M46.89,56.64V46.18H62.33a5.24,5.24,0,1,1,0,10.47Z" style="fill:#fff"/><circle cx="20.56" cy="20.57" r="20.56"/><path d="M109.34,111.57a20.56,20.56,0,1,1-33.69,23.59h0l-30.79-44A20.56,20.56,0,1,1,78.55,67.58Z"/></g></g></g></g></svg>