<?xml version="1.0" encoding="utf-8"?>
<!-- Generator: Adobe Illustrator 22.1.0, SVG Export Plug-In . SVG Version: 6.00 Build 0)  -->
<svg version="1.1" id="Layer_1" xmlns="http://www.w3.org/2000/svg" xmlns:xlink="http://www.w3.org/1999/xlink" x="0px" y="0px"
	 viewBox="0 0 223.7 116.9" style="enable-background:new 0 0 223.7 116.9;" xml:space="preserve">
<style type="text/css">
	.st0{fill:#00FFCE;}
</style>
<title>ways-to-donate</title>
<g id="Layer_2_1_">
	<g id="Layer_1-2">
		<path class="st0" d="M14.6,42.7l2.1-7.5L27.4,0h1.9L40,35.2l2,7.5l2.1-7.5L53.5,0h1.8L43.1,45.5h-1.9L29.9,7.6l-1.6-4.8l-1.5,4.8
			L15.4,45.5h-1.9L1.2,0h1.9l9.4,35.2L14.6,42.7z"/>
		<path class="st0" d="M83.5,45.5c-0.5-2-0.7-4.1-0.6-6.2c-1.3,2.1-3.2,3.9-5.5,5c-2.4,1.2-5.1,1.8-7.8,1.8
			c-2.7,0.1-5.4-0.8-7.5-2.5c-1.9-1.7-2.9-4.1-2.9-6.6c0-3.1,1.6-5.9,4.2-7.5c2.8-1.9,6.5-2.8,11.2-2.8h8.3v-4.9
			c0.1-2.5-0.8-4.9-2.7-6.6c-1.8-1.6-4.3-2.3-7.6-2.3c-2.8-0.1-5.5,0.7-7.7,2.4c-1.9,1.3-3.1,3.5-3.1,5.9L60,20.9
			c0-2.8,1.4-5.4,3.6-7c2.5-2,5.7-3,8.9-2.9c3.7,0,6.5,0.9,8.7,2.7c2.2,1.9,3.4,4.8,3.3,7.7v16.2c0,3.7,0.3,6.2,0.9,7.6v0.3H83.5z
			 M69.5,44.4c2.9,0.1,5.7-0.7,8.2-2.1c2.3-1.4,4.1-3.5,5.2-6v-8H75c-4.8,0-8.5,1-11.1,2.9c-1.9,1.3-3.1,3.5-3.1,5.8
			c0,2,0.9,4,2.5,5.3C65,43.8,67.2,44.5,69.5,44.4z"/>
		<path class="st0" d="M105.3,42.9l0.2-0.6l11.7-30.6h1.9l-15.1,39.7l-0.8,1.9c-1.6,3.9-4.3,5.9-8.1,5.9c-0.8,0.1-1.7-0.1-2.5-0.3
			v-1.6c0.7,0.2,1.5,0.3,2.3,0.3c1.6,0.1,3.2-0.5,4.4-1.5c1.4-1.4,2.4-3.1,3-5l2.1-5.6L90.9,11.7h1.8L105.3,42.9z"/>
		<path class="st0" d="M146.3,37.2c0-4.1-3.5-6.9-10.5-8.4c-4.2-0.9-7.1-2-8.8-3.5c-1.7-1.5-2.6-3.6-2.5-5.8c0-2.4,1.1-4.7,3.1-6.1
			c2.4-1.7,5.3-2.5,8.2-2.4c3.2-0.2,6.3,0.8,8.8,2.6c2.2,1.7,3.4,4.3,3.3,7h-1.7c0-2.2-1.1-4.4-2.9-5.7c-2.2-1.6-4.8-2.4-7.5-2.3
			c-2.5-0.1-4.9,0.6-7,1.9c-1.6,1.1-2.6,2.9-2.6,4.8c-0.1,1.3,0.3,2.5,1,3.6c0.9,1,1.9,1.8,3.2,2.3c2,0.9,4.2,1.6,6.4,2
			c2.3,0.5,4.5,1.3,6.5,2.4c1.4,0.7,2.6,1.8,3.5,3.1c0.8,1.3,1.1,2.9,1.1,4.4c0,2.6-1.2,5-3.3,6.4c-2.5,1.7-5.5,2.6-8.6,2.4
			c-3.3,0.2-6.5-0.7-9.2-2.6c-2.2-1.5-3.5-4-3.5-6.6h1.7c0.1,2.2,1.3,4.3,3.1,5.5c2.3,1.4,5.1,2.1,7.8,2c2.6,0.1,5.2-0.6,7.4-2.1
			C145.2,41.2,146.3,39.3,146.3,37.2z"/>
		<path class="st0" d="M176.4,2.6v9.1h7.7v1.7h-7.7v24c-0.1,1.9,0.3,3.7,1.2,5.4c0.9,1.2,2.4,1.9,3.9,1.7c1.1,0,2.2-0.1,3.4-0.3
			l0.3,1.6c-1.1,0.3-2.3,0.4-3.5,0.4c-2.5,0-4.2-0.7-5.3-2s-1.6-3.6-1.6-6.5V13.4h-6.3v-1.7h6.3V2.6H176.4z"/>
		<path class="st0" d="M189.7,27.9c0-3,0.6-6,1.9-8.7c1.1-2.5,3-4.5,5.3-6c2.3-1.4,5-2.2,7.7-2.2c5.5-0.1,10.5,3,12.9,8
			c1.3,2.7,2,5.7,1.9,8.7v1.5c0.1,3-0.6,6-1.8,8.7c-1.1,2.5-3,4.5-5.2,6c-4.7,2.9-10.6,2.9-15.4,0c-2.3-1.5-4.1-3.5-5.3-6
			c-1.3-2.7-1.9-5.6-1.9-8.5V27.9z M191.4,29.3c0,2.7,0.5,5.3,1.7,7.7c1,2.2,2.6,4.1,4.6,5.5c2,1.3,4.4,2,6.8,2
			c3.6,0.1,7.1-1.5,9.4-4.3c2.5-3.2,3.8-7.1,3.6-11.2v-1c0-2.7-0.6-5.3-1.7-7.7c-1-2.2-2.6-4.1-4.6-5.5c-2-1.3-4.4-2-6.8-2
			c-3.7-0.1-7.2,1.5-9.4,4.4c-2.5,3.1-3.8,7.1-3.6,11.1V29.3z"/>
		<path class="st0" d="M0,116.3v-42h13.5c3.5-0.1,6.9,0.8,10,2.5c2.9,1.7,5.3,4.1,6.9,7.1c1.7,3.2,2.6,6.7,2.5,10.3v1.9
			c0.1,3.6-0.8,7.1-2.4,10.3c-1.6,3-3.9,5.4-6.8,7.1c-3,1.7-6.4,2.6-9.9,2.6H0z M10.1,82.2v26.4h3.5c2.6,0.1,5.1-1,6.7-3.1
			c1.5-2.1,2.3-5.1,2.3-9.2v-1.8c0-4.1-0.8-7.1-2.3-9.2c-1.6-2.1-4.2-3.2-6.8-3.1L10.1,82.2z"/>
		<path class="st0" d="M73.7,96.2c0.1,3.7-0.7,7.5-2.3,10.9c-1.4,3-3.6,5.5-6.5,7.3c-2.9,1.7-6.2,2.6-9.5,2.6
			c-3.3,0.1-6.6-0.8-9.5-2.5c-2.8-1.7-5-4.1-6.5-7c-1.6-3.3-2.4-6.9-2.4-10.5v-2.4c-0.1-3.7,0.7-7.5,2.3-10.9c1.4-3,3.6-5.6,6.4-7.3
			c2.9-1.7,6.2-2.6,9.6-2.6c3.3-0.1,6.6,0.8,9.5,2.5c2.8,1.7,5.1,4.2,6.5,7.2c1.6,3.4,2.4,7,2.4,10.8V96.2z M63.4,94.4
			c0-4.2-0.7-7.3-2.1-9.5c-1.3-2.1-3.6-3.3-6-3.2c-5.1,0-7.7,3.8-8,11.4v3.1c0,4.1,0.7,7.3,2,9.5c1.3,2.1,3.6,3.4,6.1,3.3
			c2.4,0.1,4.7-1.2,5.9-3.3c1.4-2.2,2.1-5.3,2.1-9.4L63.4,94.4z"/>
		<path class="st0" d="M113.9,116.3h-10.1L89,90.2v26.1H78.9V74.3H89l14.8,26.1V74.3h10.1V116.3z"/>
		<path class="st0" d="M144.7,108.5h-13.9l-2.4,7.8h-10.8l15.4-42h9.5l15.5,42h-10.9L144.7,108.5z M133.2,100.7h9l-4.5-14.5
			L133.2,100.7z"/>
		<path class="st0" d="M190.5,82.2h-12.6v34.1h-10.1V82.2h-12.4v-7.8h35.1V82.2z"/>
		<path class="st0" d="M220.8,98.5h-15.9v10h18.8v7.8h-28.9V74.3h29v7.8h-18.9V91h15.9L220.8,98.5z"/>
	</g>
</g>
</svg>
